<svg xml:space="preserve" style="max-height: 500px" viewBox="765.3562822719449 273.4678899082569 541.9621342512909 386.42201834862385" y="0px" x="0px" xmlns:xlink="http://www.w3.org/1999/xlink" xmlns="http://www.w3.org/2000/svg" id="Слой_1" version="1.1" width="541.9621342512909" height="386.42201834862385">
<style type="text/css">
	.st0{fill:#6A5FF0;stroke:#000000;stroke-width:4;stroke-miterlimit:10;}
	.st1{fill:#18151E;}
	.st2{fill:#6E5AEF;stroke:#000000;stroke-width:3;stroke-miterlimit:10;}
	.st3{fill:#FFFFFF;}
	.st4{fill:#18151E;stroke:#000000;stroke-width:8;stroke-miterlimit:10;}
	.st5{fill:none;}
	.st6{fill:#6A5FF0;}
	.st7{font-family:'BebasNeue-Regular';}
	.st8{font-size:72px;}
</style>
<g id="Слой_1_00000098179430822438965500000010783924262767270302_">
	
		<image transform="matrix(1 0 0 1 713.6799 209.5)" xlink:href="C80228D5.jpg" height="589" width="657" style="display:none;overflow:visible;enable-background:new    ;">
	</image>
	<path d="M777.9,467.2c52.1,115.6,127.2,181,263.8,180.7c131.9-0.2,198.6-76.6,253.2-186.5&#10;&#9;&#9;c-55.8-108.2-121.5-173-253.2-175C910.3,284.6,837.7,361.2,777.9,467.2z" class="st0"/>
	<path d="M801.2,464.1c47.2-84.5,136.4-137.4,233.1-138.2c97.1-0.8,187.5,51,235.9,135.3&#10;&#9;&#9;c-42.4,87.6-129.4,145-225.6,148.5C942.8,613.5,847.3,556.4,801.2,464.1z" class="st1"/>
	<path d="M958.7,344.5c3.2,2.7-54.3,45.8-56,111c-1.8,70.5,62.7,119.8,59,123c-4,3.3-84.7-45.3-84-119&#10;&#9;&#9;C878.4,388.1,955.1,341.5,958.7,344.5z" class="st2"/>
	<path d="M1120.8,578.5c-3.2-2.7,54.3-45.8,56-111c1.8-70.5-62.7-119.8-59-123c4-3.4,84.7,45.3,84,119&#10;&#9;&#9;C1201.1,534.9,1124.3,581.5,1120.8,578.5z" class="st2"/>
	<circle r="121.5" cy="461" cx="1038.2" class="st2"/>
	<ellipse ry="73" rx="69" cy="460.5" cx="1035.7" class="st3"/>
	<circle r="54.5" cy="461" cx="1036.2" class="st4"/>
	
		<ellipse ry="29" rx="29" cy="445.6" cx="1018.9" class="st3" transform="matrix(0.1602 -0.9871 0.9871 0.1602 415.8302 1379.9098)"/>
	<rect height="59.7" width="172" class="st5" y="676.8" x="962.7"/>
	<text class="st6 st7 st8" transform="matrix(1 0 0 1 962.6566 727.2148)">VisorAI</text>
	<g>
		<g>
			<path d="M1337.7,966.5c7.7,0,7.7-12,0-12C1330,954.5,1329.9,966.5,1337.7,966.5L1337.7,966.5z" class="st3"/>
		</g>
	</g>
</g>
<g id="Слой_2_00000163768179840703640080000008491244395402386313_">
</g>
</svg>